<svg width="24" height="24" viewBox="0 0 24 24" fill="none" xmlns="http://www.w3.org/2000/svg">
<g id="fluent:chat-help-20-regular" clip-path="url(#clip0_1791_20935)">
<path id="Vector" d="M10.875 7.9575C10.635 8.2335 10.5 8.6145 10.5 8.997C10.5 9.19591 10.421 9.38668 10.2803 9.52733C10.1397 9.66798 9.94891 9.747 9.75 9.747C9.55109 9.747 9.36032 9.66798 9.21967 9.52733C9.07902 9.38668 9 9.19591 9 8.997C9 8.2875 9.2415 7.542 9.75 6.966C10.2705 6.375 11.04 5.997 12 5.997C12.96 5.997 13.7295 6.375 14.25 6.966C14.7585 7.5435 15 8.286 15 8.997C15 9.732 14.826 10.302 14.547 10.782C14.3025 11.2005 13.983 11.532 13.7295 11.7975L13.6665 11.862C13.3875 12.1545 13.173 12.393 13.0155 12.693C12.8655 12.9795 12.75 13.359 12.75 13.9365C12.75 14.1354 12.671 14.3262 12.5303 14.4668C12.3897 14.6075 12.1989 14.6865 12 14.6865C11.8011 14.6865 11.6103 14.6075 11.4697 14.4668C11.329 14.3262 11.25 14.1354 11.25 13.9365C11.25 13.1385 11.415 12.516 11.6865 11.997C11.952 11.4915 12.3015 11.121 12.5835 10.8255L12.6165 10.791C12.8985 10.4955 13.0995 10.2855 13.251 10.026C13.3935 9.7815 13.5 9.4725 13.5 8.997C13.5 8.6145 13.3665 8.232 13.125 7.9575C12.8955 7.698 12.54 7.497 12 7.497C11.46 7.497 11.1045 7.698 10.875 7.9575ZM12 18.315C12.1411 18.3203 12.2819 18.2971 12.4138 18.2468C12.5458 18.1965 12.6662 18.1201 12.768 18.0221C12.8697 17.9241 12.9506 17.8067 13.0059 17.6767C13.0612 17.5467 13.0897 17.407 13.0897 17.2657C13.0897 17.1245 13.0612 16.9847 13.0059 16.8548C12.9506 16.7248 12.8697 16.6073 12.768 16.5094C12.6662 16.4114 12.5458 16.335 12.4138 16.2847C12.2819 16.2343 12.1411 16.2112 12 16.2165C11.7215 16.2165 11.4544 16.3271 11.2575 16.524C11.0606 16.7209 10.95 16.988 10.95 17.2665C10.95 17.545 11.0606 17.812 11.2575 18.009C11.4544 18.2059 11.7215 18.3165 12 18.3165V18.315ZM1.28924e-05 11.997C0.000667789 9.37473 0.86025 6.82487 2.44729 4.73739C4.03433 2.64991 6.26146 1.13974 8.78804 0.437854C11.3146 -0.264031 14.0016 -0.11899 16.4379 0.850792C18.8743 1.82057 20.9259 3.56171 22.279 5.8079C23.6321 8.05409 24.2122 10.6817 23.9306 13.2888C23.649 15.8959 22.5211 18.3389 20.7195 20.2444C18.918 22.1498 16.5418 23.4126 13.9546 23.8397C11.3673 24.2669 8.71141 23.8347 6.39301 22.6095L0.933012 23.9745C0.80735 24.0061 0.675649 24.0046 0.550744 23.9701C0.42584 23.9357 0.311992 23.8694 0.220296 23.7779C0.128601 23.6863 0.0621857 23.5726 0.0275237 23.4478C-0.00713817 23.3229 -0.00886444 23.1912 0.022513 23.0655L1.38751 17.604C0.473554 15.8765 -0.00285731 13.9513 1.28924e-05 11.997ZM12 1.497C10.1676 1.49645 8.36689 1.97545 6.77694 2.8864C5.18698 3.79736 3.8631 5.10855 2.93688 6.68967C2.01066 8.27078 1.51435 10.0668 1.49726 11.8991C1.48018 13.7315 1.94293 15.5364 2.83951 17.1345C2.93367 17.3012 2.9605 17.4976 2.91451 17.6835L1.78051 22.2165L6.31351 21.0825C6.49937 21.0365 6.69579 21.0633 6.8625 21.1575C8.26239 21.9417 9.82339 22.3947 11.4256 22.4816C13.0279 22.5685 14.6287 22.287 16.1052 21.6588C17.5817 21.0306 18.8946 20.0723 19.943 18.8576C20.9914 17.6429 21.7475 16.2041 22.1532 14.6516C22.5588 13.0992 22.6033 11.4744 22.2832 9.90205C21.963 8.32973 21.2868 6.85169 20.3064 5.58146C19.326 4.31122 18.0675 3.28258 16.6275 2.57454C15.1876 1.86649 13.6046 1.49788 12 1.497Z" fill="#FBFBFB"/>
</g>
<defs>
<clipPath id="clip0_1791_20935">
<rect width="24" height="24" fill="white"/>
</clipPath>
</defs>
</svg>
