<svg width="25" height="25" viewBox="0 0 25 25" fill="none" xmlns="http://www.w3.org/2000/svg">
<g id="Iconset/shopping-cart-add">
<path id="Vector" fill-rule="evenodd" clip-rule="evenodd" d="M14.033 5.06647C14.0293 4.5142 13.5786 4.06948 13.0263 4.07316C12.4741 4.07683 12.0293 4.52752 12.033 5.07979L12.0636 9.66548L10.7621 8.38123C10.369 7.99331 9.73583 7.99753 9.34791 8.39064C8.96 8.78376 8.96421 9.41691 9.35733 9.80483L12.3767 12.7843C12.3771 12.7846 12.3774 12.785 12.3778 12.7853L13.089 13.4872L13.7909 12.7759C13.7913 12.7755 13.7916 12.7752 13.792 12.7748L16.7714 9.75545C17.1593 9.36233 17.1551 8.72918 16.762 8.34127C16.3688 7.95335 15.7357 7.95757 15.3478 8.35068L14.0635 9.65216L14.033 5.06647ZM1.04659 7.15301C1.04291 6.60074 1.48764 6.15005 2.03991 6.14637L5.1448 6.12569C6.16387 6.11891 7.02509 6.87946 7.14437 7.89155L7.99476 15.1069L18.2322 15.0387L19.0686 8.8916C19.1431 8.34436 19.6471 7.96109 20.1943 8.03556C20.7416 8.11002 21.1248 8.61401 21.0504 9.16125L20.2139 15.3084C20.0797 16.2946 19.2408 17.0321 18.2455 17.0387L8.00808 17.1069C6.98901 17.1137 6.12779 16.3531 6.00851 15.341L5.15812 8.12565L2.05323 8.14633C1.50096 8.15001 1.05027 7.70528 1.04659 7.15301ZM9.12966 19.5995C9.13518 20.4279 8.4681 21.1039 7.63969 21.1094C6.81128 21.1149 6.13525 20.4478 6.12973 19.6194C6.12421 18.791 6.7913 18.115 7.61971 18.1095C8.44812 18.104 9.12415 18.771 9.12966 19.5995ZM16.6395 21.0495C17.4679 21.044 18.135 20.3679 18.1295 19.5395C18.1239 18.7111 17.4479 18.044 16.6195 18.0495C15.7911 18.0551 15.124 18.7311 15.1295 19.5595C15.135 20.3879 15.8111 21.055 16.6395 21.0495Z" fill="#FBFBFB"/>
</g>
</svg>
