<svg width="24" height="24" viewBox="0 0 24 24" fill="none" xmlns="http://www.w3.org/2000/svg">
<g id="Gender">
<path id="Vector" d="M19.5001 2.4375H15.7501C15.6009 2.4375 15.4579 2.49676 15.3524 2.60225C15.2469 2.70774 15.1876 2.85082 15.1876 3C15.1876 3.14918 15.2469 3.29226 15.3524 3.39775C15.4579 3.50324 15.6009 3.5625 15.7501 3.5625H18.1426L15.3301 6.36938C14.6685 5.71377 13.8591 5.22675 12.9699 4.94934C12.0808 4.67194 11.138 4.61227 10.221 4.77537C9.30393 4.93847 8.43953 5.31956 7.70056 5.88653C6.9616 6.45351 6.3697 7.18976 5.97474 8.03329C5.57977 8.87681 5.39331 9.8029 5.43104 10.7336C5.46878 11.6642 5.72961 12.5722 6.19157 13.3809C6.65353 14.1897 7.30309 14.8756 8.08553 15.3809C8.86798 15.8862 9.76039 16.1961 10.6876 16.2844V18.1875H8.25011C8.10093 18.1875 7.95785 18.2468 7.85236 18.3523C7.74687 18.4577 7.68761 18.6008 7.68761 18.75C7.68761 18.8992 7.74687 19.0423 7.85236 19.1477C7.95785 19.2532 8.10093 19.3125 8.25011 19.3125H10.6876V21.75C10.6876 21.8992 10.7469 22.0423 10.8524 22.1477C10.9579 22.2532 11.1009 22.3125 11.2501 22.3125C11.3993 22.3125 11.5424 22.2532 11.6479 22.1477C11.7533 22.0423 11.8126 21.8992 11.8126 21.75V19.3125H14.2501C14.3993 19.3125 14.5424 19.2532 14.6479 19.1477C14.7533 19.0423 14.8126 18.8992 14.8126 18.75C14.8126 18.6008 14.7533 18.4577 14.6479 18.3523C14.5424 18.2468 14.3993 18.1875 14.2501 18.1875H11.8126V16.2844C12.8157 16.1863 13.776 15.829 14.5993 15.2477C15.4226 14.6664 16.0806 13.881 16.5088 12.9685C16.9369 12.0561 17.1204 11.0481 17.0413 10.0433C16.9622 9.0386 16.6232 8.07168 16.0576 7.2375L18.9376 4.3575V6.75C18.9376 6.89918 18.9969 7.04226 19.1024 7.14775C19.2079 7.25324 19.3509 7.3125 19.5001 7.3125C19.6493 7.3125 19.7924 7.25324 19.8979 7.14775C20.0033 7.04226 20.0626 6.89918 20.0626 6.75V3C20.0626 2.85082 20.0033 2.70774 19.8979 2.60225C19.7924 2.49676 19.6493 2.4375 19.5001 2.4375ZM11.2501 15.1875C10.323 15.1875 9.41673 14.9126 8.64588 14.3975C7.87502 13.8824 7.27421 13.1504 6.91943 12.2938C6.56464 11.4373 6.47181 10.4948 6.65268 9.58551C6.83355 8.67623 7.27999 7.841 7.93555 7.18544C8.59111 6.52988 9.42634 6.08344 10.3356 5.90257C11.2449 5.7217 12.1874 5.81453 13.0439 6.16931C13.9005 6.5241 14.6326 7.12491 15.1476 7.89576C15.6627 8.66662 15.9376 9.5729 15.9376 10.5C15.9361 11.7427 15.4418 12.9342 14.563 13.8129C13.6843 14.6917 12.4929 15.186 11.2501 15.1875Z" fill="black"/>
</g>
</svg>
