<svg width="24" height="24" viewBox="0 0 24 24" fill="none" xmlns="http://www.w3.org/2000/svg">
<g id="akun">
<path id="e9d9" d="M15.0608 13.5302H7.93756C7.34499 13.5268 6.75752 13.6351 6.20874 13.849C5.68246 14.0651 5.20245 14.3724 4.79288 14.7553C4.38738 15.1376 4.06819 15.5954 3.85505 16.1004C3.61698 16.6286 3.49652 17.1984 3.50136 17.7736V19.6532C3.49472 19.7679 3.51248 19.8826 3.55357 19.9904C3.59465 20.0983 3.6582 20.197 3.74037 20.2807C3.82783 20.3593 3.93107 20.4201 4.04382 20.4594C4.15657 20.4987 4.27649 20.5157 4.39632 20.5093C4.51295 20.5146 4.62948 20.4971 4.73877 20.4577C4.84807 20.4184 4.94781 20.3582 5.0319 20.2807C5.11406 20.197 5.17762 20.0983 5.2187 19.9904C5.25979 19.8826 5.27755 19.7679 5.27091 19.6532V17.7736C5.26615 17.4373 5.33188 17.1036 5.4642 16.7921C5.59653 16.4806 5.79278 16.1976 6.04135 15.9598C6.28993 15.722 6.58579 15.5343 6.91148 15.4077C7.23716 15.2811 7.58606 15.2183 7.93756 15.2228H15.0608C15.4121 15.2184 15.7608 15.2814 16.0863 15.4079C16.4118 15.5345 16.7075 15.7222 16.9559 15.9598C17.2044 16.1974 17.4005 16.4803 17.5329 16.7916C17.6652 17.103 17.731 17.4365 17.7264 17.7725V19.6532C17.7197 19.7679 17.7375 19.8826 17.7786 19.9904C17.8197 20.0983 17.8832 20.197 17.9654 20.2807C18.0495 20.3582 18.1492 20.4184 18.2585 20.4577C18.3678 20.4971 18.4843 20.5146 18.601 20.5093C18.7212 20.5191 18.8423 20.5037 18.9557 20.4641C19.069 20.4245 19.172 20.3617 19.2573 20.2801C19.3427 20.1984 19.4084 20.0999 19.4497 19.9915C19.4911 19.883 19.5073 19.7673 19.497 19.6522V17.7736C19.5018 17.1984 19.3814 16.6286 19.1433 16.1004C18.9305 15.5955 18.6117 15.1377 18.2065 14.7553C17.7973 14.3725 17.3177 14.0653 16.7918 13.849C16.2423 13.6349 15.6541 13.5265 15.0608 13.5302ZM11.4992 11.8171C12.0985 11.8217 12.6928 11.7133 13.2484 11.4982C14.3111 11.0683 15.1569 10.2593 15.6063 9.24272C15.8288 8.71227 15.9403 8.14519 15.9343 7.57367C15.9391 7.00042 15.8259 6.43188 15.601 5.90051C15.1516 4.88397 14.3057 4.07492 13.243 3.64503C12.1189 3.21989 10.8677 3.21989 9.74356 3.64503C8.68082 4.07492 7.83501 4.88397 7.38558 5.90051C7.1607 6.43188 7.04743 7.00042 7.05225 7.57367C7.04743 8.14691 7.1607 8.71545 7.38558 9.24683C7.83501 10.2634 8.68082 11.0724 9.74356 11.5023C10.3014 11.7168 10.898 11.8238 11.4992 11.8171ZM11.4992 5.02395C11.8505 5.01954 12.1992 5.08248 12.5247 5.20905C12.8502 5.33562 13.1459 5.52327 13.3943 5.76092C13.6427 5.99856 13.8389 6.2814 13.9712 6.59274C14.1036 6.90408 14.1694 7.23761 14.1648 7.57367C14.1694 7.90972 14.1036 8.24326 13.9712 8.5546C13.8389 8.86593 13.6427 9.14877 13.3943 9.38642C13.1459 9.62407 12.8502 9.81171 12.5247 9.93828C12.1992 10.0649 11.8505 10.1278 11.4992 10.1234C11.1478 10.1278 10.7992 10.0649 10.4737 9.93828C10.1482 9.81171 9.8525 9.62407 9.60405 9.38642C9.35561 9.14877 9.15943 8.86593 9.02711 8.5546C8.89478 8.24326 8.82898 7.90972 8.83359 7.57367C8.82898 7.23761 8.89478 6.90408 9.02711 6.59274C9.15943 6.2814 9.35561 5.99856 9.60405 5.76092C9.8525 5.52327 10.1482 5.33562 10.4737 5.20905C10.7992 5.08248 11.1478 5.01954 11.4992 5.02395Z" fill="#008772"/>
</g>
</svg>
