<svg width="20" height="20" viewBox="0 0 20 20" fill="none" xmlns="http://www.w3.org/2000/svg">
<g id="Document">
<path id="Stroke 7" d="M15.5 15.5H4.5" stroke="#9C9C9C" stroke-width="1.2" stroke-linecap="round" stroke-linejoin="round"/>
<path id="Stroke 8" d="M15.5 12.5H4.5" stroke="#9C9C9C" stroke-width="1.2" stroke-linecap="round" stroke-linejoin="round"/>
<path id="Stroke 4" fill-rule="evenodd" clip-rule="evenodd" d="M13.9024 1C13.9024 1 6.07108 1.00391 6.05884 1.00391C3.24335 1.02053 1.5 2.79609 1.5 5.5044V14.4956C1.5 17.2176 3.25662 19 6.09658 19C6.09658 19 13.9269 18.9971 13.9401 18.9971C16.7556 18.9804 18.5 17.2039 18.5 14.4956V5.5044C18.5 2.7824 16.7424 1 13.9024 1Z" stroke="#9C9C9C" stroke-width="1.5" stroke-linecap="round" stroke-linejoin="round"/>
<path id="Stroke 5" fill-rule="evenodd" clip-rule="evenodd" d="M6.29992 4H8.70007C9.69418 4 10.5 4.80582 10.5 5.79992V8.20008C10.5 9.19342 9.69418 10 8.70007 10H6.29992C5.30582 10 4.5 9.19342 4.5 8.20008V5.79992C4.5 4.80582 5.30582 4 6.29992 4Z" stroke="#9C9C9C" stroke-width="1.2" stroke-linecap="round" stroke-linejoin="round"/>
</g>
</svg>
