<svg width="25" height="25" viewBox="0 0 25 25" fill="none" xmlns="http://www.w3.org/2000/svg">
<path id="Vector" d="M17.5336 0.75L18.6268 1.04529C19.9636 1.40697 21.1823 2.11274 22.1612 3.09223C23.1401 4.07171 23.8451 5.29066 24.2058 6.62752L24.5 7.7193L22.3159 8.30875L22.0206 7.21697C21.7628 6.26205 21.2592 5.39139 20.5598 4.69181C19.8605 3.99223 18.9899 3.4882 18.0349 3.22999L16.9429 2.93356L17.5336 0.75ZM0.500027 0.990984H10.2096L11.8923 8.55992L9.78746 10.6643C11.0245 12.5904 12.6622 14.2273 14.589 15.4636L16.6939 13.3604L24.2646 15.0427V24.75H23.133C18.7766 24.7568 14.5117 23.5008 10.8546 21.1341C8.15818 19.3894 5.86187 17.0936 4.11677 14.3978C1.74959 10.7416 0.493312 6.4777 0.500027 2.12236V0.990984ZM2.79388 3.25375C2.98425 6.78361 4.0958 10.2021 6.01794 13.1692C7.58908 15.5959 9.65628 17.6626 12.0836 19.2334C15.0513 21.1551 18.4706 22.2664 22.0013 22.4567V16.8575L17.4148 15.8392L14.9546 18.3L14.2043 17.8734C11.3556 16.2548 8.99718 13.8969 7.37818 11.049L6.95155 10.2989L9.41288 7.83923L8.3944 3.25375H2.79388ZM16.4993 4.5718L17.5924 4.86709C18.2609 5.04793 18.8702 5.40082 19.3597 5.89056C19.8491 6.3803 20.2016 6.98978 20.3819 7.65821L20.6762 8.74999L18.4921 9.33944L18.1967 8.24766C18.1193 7.96117 17.9682 7.69998 17.7583 7.49015C17.5484 7.28031 17.2871 7.12916 17.0006 7.05179L15.9085 6.7565L16.4993 4.5718Z" fill="#FBFBFB"/>
</svg>
