<svg width="25" height="25" viewBox="0 0 25 25" fill="none" xmlns="http://www.w3.org/2000/svg">
<g id="material-symbols:chat-outline">
<path id="Vector" d="M6.5 14.75H14.5V12.75H6.5V14.75ZM6.5 11.75H18.5V9.75H6.5V11.75ZM6.5 8.75H18.5V6.75H6.5V8.75ZM2.5 22.75V4.75C2.5 4.2 2.696 3.729 3.088 3.337C3.48 2.945 3.95067 2.74934 4.5 2.75H20.5C21.05 2.75 21.521 2.946 21.913 3.338C22.305 3.73 22.5007 4.20067 22.5 4.75V16.75C22.5 17.3 22.304 17.771 21.912 18.163C21.52 18.555 21.0493 18.7507 20.5 18.75H6.5L2.5 22.75ZM5.65 16.75H20.5V4.75H4.5V17.875L5.65 16.75Z" fill="#FBFBFB"/>
</g>
</svg>
