<svg width="24" height="24" viewBox="0 0 24 24" fill="none" xmlns="http://www.w3.org/2000/svg">
<path id="e9d9" d="M17.3412 14.2498H6.65634C5.76748 14.245 4.88628 14.3963 4.06311 14.695C3.27369 14.9968 2.55368 15.4259 1.93933 15.9606C1.33107 16.4945 0.852279 17.1338 0.53258 17.839C0.17547 18.5766 -0.00521524 19.3724 0.00203596 20.1756V22.8005C-0.00792171 22.9606 0.0187204 23.1208 0.0803475 23.2714C0.141975 23.422 0.237303 23.5599 0.360555 23.6767C0.491748 23.7865 0.646602 23.8714 0.815731 23.9262C0.98486 23.9811 1.16474 24.0049 1.34447 23.996C1.51942 24.0034 1.69422 23.9789 1.85816 23.924C2.0221 23.8691 2.17172 23.7849 2.29784 23.6767C2.4211 23.5599 2.51643 23.422 2.57805 23.2714C2.63968 23.1208 2.66632 22.9606 2.65636 22.8005V20.1756C2.64923 19.706 2.74782 19.24 2.94631 18.8049C3.1448 18.3699 3.43917 17.9747 3.81203 17.6426C4.18489 17.3106 4.62869 17.0485 5.11722 16.8717C5.60574 16.6949 6.12908 16.6071 6.65634 16.6135H17.3412C17.8682 16.6073 18.3912 16.6952 18.8794 16.872C19.3677 17.0488 19.8112 17.3108 20.1839 17.6427C20.5565 17.9745 20.8508 18.3695 21.0493 18.8043C21.2478 19.2391 21.3465 19.7048 21.3396 20.1741V22.8005C21.3296 22.9606 21.3562 23.1208 21.4179 23.2714C21.4795 23.422 21.5748 23.5599 21.6981 23.6767C21.8242 23.7849 21.9738 23.8691 22.1378 23.924C22.3017 23.9789 22.4765 24.0034 22.6514 23.996C22.8318 24.0097 23.0134 23.9882 23.1835 23.9329C23.3535 23.8776 23.508 23.7899 23.636 23.6759C23.764 23.5618 23.8625 23.4243 23.9246 23.2729C23.9867 23.1214 24.0109 22.9597 23.9955 22.7991V20.1756C24.0027 19.3724 23.8221 18.5766 23.4649 17.839C23.1457 17.1339 22.6675 16.4946 22.0598 15.9606C21.4459 15.426 20.7265 14.997 19.9376 14.695C19.1135 14.396 18.2311 14.2446 17.3412 14.2498ZM11.9988 11.8574C12.8977 11.8638 13.7893 11.7125 14.6225 11.4121C16.2166 10.8118 17.4854 9.68196 18.1595 8.26237C18.4933 7.52161 18.6604 6.72969 18.6515 5.93156C18.6587 5.13104 18.4888 4.33708 18.1515 3.59502C17.4773 2.17544 16.2086 1.04561 14.6145 0.445276C12.9283 -0.148426 11.0516 -0.148426 9.36533 0.445276C7.77123 1.04561 6.50251 2.17544 5.82837 3.59502C5.49105 4.33708 5.32115 5.13104 5.32838 5.93156C5.32115 6.73209 5.49105 7.52605 5.82837 8.2681C6.50251 9.68769 7.77123 10.8175 9.36533 11.4178C10.2021 11.7174 11.097 11.8668 11.9988 11.8574ZM11.9988 2.37092C12.5258 2.36476 13.0488 2.45265 13.537 2.62941C14.0252 2.80617 14.4688 3.06821 14.8414 3.40008C15.2141 3.73196 15.5084 4.12693 15.7069 4.56171C15.9054 4.99649 16.004 5.46227 15.9971 5.93156C16.004 6.40086 15.9054 6.86663 15.7069 7.30141C15.5084 7.73619 15.2141 8.13117 14.8414 8.46304C14.4688 8.79491 14.0252 9.05696 13.537 9.23371C13.0488 9.41047 12.5258 9.49837 11.9988 9.49221C11.4718 9.49837 10.9487 9.41047 10.4605 9.23371C9.97228 9.05696 9.52875 8.79491 9.15608 8.46304C8.78341 8.13117 8.48915 7.73619 8.29066 7.30141C8.09217 6.86663 7.99347 6.40086 8.00039 5.93156C7.99347 5.46227 8.09217 4.99649 8.29066 4.56171C8.48915 4.12693 8.78341 3.73196 9.15608 3.40008C9.52875 3.06821 9.97228 2.80617 10.4605 2.62941C10.9487 2.45265 11.4718 2.36476 11.9988 2.37092Z" fill="#1F1F1F"/>
</svg>
